<?xml version="1.0" encoding="UTF-8" standalone="no"?>
<!-- Created with Inkscape (http://www.inkscape.org/) -->

<svg
   xmlns:osb="http://www.openswatchbook.org/uri/2009/osb"
   xmlns:dc="http://purl.org/dc/elements/1.1/"
   xmlns:cc="http://creativecommons.org/ns#"
   xmlns:rdf="http://www.w3.org/1999/02/22-rdf-syntax-ns#"
   xmlns:svg="http://www.w3.org/2000/svg"
   xmlns="http://www.w3.org/2000/svg"
   xmlns:xlink="http://www.w3.org/1999/xlink"
   xmlns:sodipodi="http://sodipodi.sourceforge.net/DTD/sodipodi-0.dtd"
   xmlns:inkscape="http://www.inkscape.org/namespaces/inkscape"
   width="39.6875mm"
   height="39.6875mm"
   viewBox="0 0 39.6875 39.6875"
   version="1.1"
   id="svg1401"
   inkscape:version="0.92.3 (2405546, 2018-03-11)"
   sodipodi:docname="logo.svg">
  <defs
     id="defs1395">
    <linearGradient
       inkscape:collect="always"
       xlink:href="#linearGradient3123"
       id="linearGradient1335"
       gradientUnits="userSpaceOnUse"
       gradientTransform="matrix(1.5599363,0,0,1.5599363,1011.82,294.15652)"
       x1="9.4567518"
       y1="195.12007"
       x2="111.46149"
       y2="195.12007" />
    <linearGradient
       id="linearGradient3123"
       osb:paint="solid">
      <stop
         style="stop-color:#2c5aa0;stop-opacity:1;"
         offset="0"
         id="stop3121" />
    </linearGradient>
    <linearGradient
       inkscape:collect="always"
       xlink:href="#linearGradient3109"
       id="linearGradient1337"
       gradientUnits="userSpaceOnUse"
       gradientTransform="matrix(1.5599363,0,0,1.5599363,1011.82,294.15652)"
       x1="14.188451"
       y1="195.12007"
       x2="106.72979"
       y2="195.12007" />
    <linearGradient
       id="linearGradient3109"
       osb:paint="solid">
      <stop
         style="stop-color:#2c89a0;stop-opacity:1;"
         offset="0"
         id="stop3107" />
    </linearGradient>
    <linearGradient
       inkscape:collect="always"
       xlink:href="#linearGradient3103"
       id="linearGradient1339"
       gradientUnits="userSpaceOnUse"
       gradientTransform="matrix(1.5599363,0,0,1.5599363,1011.82,294.15652)"
       x1="14.345826"
       y1="195.12007"
       x2="106.57242"
       y2="195.12007" />
    <linearGradient
       id="linearGradient3103">
      <stop
         style="stop-color:#2c89a0;stop-opacity:1;"
         offset="0"
         id="stop3101" />
    </linearGradient>
    <linearGradient
       inkscape:collect="always"
       xlink:href="#linearGradient3103"
       id="linearGradient1341"
       gradientUnits="userSpaceOnUse"
       gradientTransform="matrix(1.5599363,0,0,1.5599363,1011.82,294.15652)"
       x1="19.409758"
       y1="195.12007"
       x2="101.50849"
       y2="195.12007" />
    <linearGradient
       inkscape:collect="always"
       xlink:href="#linearGradient3043"
       id="linearGradient1343"
       gradientUnits="userSpaceOnUse"
       gradientTransform="matrix(1.5599363,0,0,1.5599363,1011.82,294.15652)"
       x1="37.335693"
       y1="186.95619"
       x2="84.232681"
       y2="186.95619" />
    <linearGradient
       id="linearGradient3043"
       osb:paint="solid">
      <stop
         style="stop-color:#ffffff;stop-opacity:1;"
         offset="0"
         id="stop3041" />
    </linearGradient>
    <marker
       inkscape:stockid="DotS"
       orient="auto"
       refY="0"
       refX="0"
       id="marker1797-45"
       style="overflow:visible"
       inkscape:isstock="true">
      <path
         inkscape:connector-curvature="0"
         id="path1601-2"
         d="m -2.5,-1 c 0,2.76 -2.24,5 -5,5 -2.76,0 -5,-2.24 -5,-5 0,-2.76 2.24,-5 5,-5 2.76,0 5,2.24 5,5 z"
         style="fill:#ffffff;fill-opacity:1;fill-rule:evenodd;stroke:#ffffff;stroke-width:1.00000003pt;stroke-opacity:1"
         transform="matrix(0.2,0,0,0.2,1.48,0.2)" />
    </marker>
    <marker
       inkscape:stockid="DotS"
       orient="auto"
       refY="0"
       refX="0"
       id="marker1903-5"
       style="overflow:visible"
       inkscape:isstock="true">
      <path
         inkscape:connector-curvature="0"
         id="path1901-47"
         d="m -2.5,-1 c 0,2.76 -2.24,5 -5,5 -2.76,0 -5,-2.24 -5,-5 0,-2.76 2.24,-5 5,-5 2.76,0 5,2.24 5,5 z"
         style="fill:#ffffff;fill-opacity:1;fill-rule:evenodd;stroke:#ffffff;stroke-width:1.00000003pt;stroke-opacity:1"
         transform="matrix(0.2,0,0,0.2,1.48,0.2)" />
    </marker>
    <marker
       inkscape:isstock="true"
       style="overflow:visible"
       id="marker5468-3-4"
       refX="0"
       refY="0"
       orient="auto"
       inkscape:stockid="DotS"
       inkscape:collect="always">
      <path
         inkscape:connector-curvature="0"
         transform="matrix(0.2,0,0,0.2,1.48,0.2)"
         style="fill:#ffffff;fill-opacity:1;fill-rule:evenodd;stroke:#ffffff;stroke-width:1.00000003pt;stroke-opacity:1"
         d="m -2.5,-1 c 0,2.76 -2.24,5 -5,5 -2.76,0 -5,-2.24 -5,-5 0,-2.76 2.24,-5 5,-5 2.76,0 5,2.24 5,5 z"
         id="path5466-5-4" />
    </marker>
    <marker
       inkscape:isstock="true"
       style="overflow:visible"
       id="marker5596-6-30"
       refX="0"
       refY="0"
       orient="auto"
       inkscape:stockid="DotS"
       inkscape:collect="always">
      <path
         inkscape:connector-curvature="0"
         transform="matrix(0.2,0,0,0.2,1.48,0.2)"
         style="fill:#ffffff;fill-opacity:1;fill-rule:evenodd;stroke:#ffffff;stroke-width:1.00000003pt;stroke-opacity:1"
         d="m -2.5,-1 c 0,2.76 -2.24,5 -5,5 -2.76,0 -5,-2.24 -5,-5 0,-2.76 2.24,-5 5,-5 2.76,0 5,2.24 5,5 z"
         id="path5594-2-7" />
    </marker>
  </defs>
  <sodipodi:namedview
     id="base"
     pagecolor="#ffffff"
     bordercolor="#666666"
     borderopacity="1.0"
     inkscape:pageopacity="0.0"
     inkscape:pageshadow="2"
     inkscape:zoom="1.4"
     inkscape:cx="161.06643"
     inkscape:cy="120.69939"
     inkscape:document-units="mm"
     inkscape:current-layer="layer1"
     showgrid="false"
     fit-margin-top="0"
     fit-margin-left="0"
     fit-margin-right="0"
     fit-margin-bottom="0"
     inkscape:window-width="1313"
     inkscape:window-height="740"
     inkscape:window-x="53"
     inkscape:window-y="28"
     inkscape:window-maximized="1" />
  <metadata
     id="metadata1398">
    <rdf:RDF>
      <cc:Work
         rdf:about="">
        <dc:format>image/svg+xml</dc:format>
        <dc:type
           rdf:resource="http://purl.org/dc/dcmitype/StillImage" />
        <dc:title></dc:title>
      </cc:Work>
    </rdf:RDF>
  </metadata>
  <g
     inkscape:label="Layer 1"
     inkscape:groupmode="layer"
     id="layer1"
     transform="translate(-80.697913,-53.394345)">
    <g
       id="g1333"
       transform="matrix(0.46475982,0,0,0.46475982,-68.87111,-21.321005)">
      <path
         sodipodi:type="star"
         style="opacity:1;fill:url(#linearGradient1335);fill-opacity:1;stroke:none;stroke-width:0.25238603;stroke-opacity:1"
         id="path1323"
         sodipodi:sides="6"
         sodipodi:cx="364.51685"
         sodipodi:cy="203.45799"
         sodipodi:r1="42.696785"
         sodipodi:r2="36.976501"
         sodipodi:arg1="0.52359878"
         sodipodi:arg2="1.0471976"
         inkscape:flatsided="true"
         inkscape:rounded="0"
         inkscape:randomized="0"
         d="m 401.49335,224.80639 -36.9765,21.34839 -36.9765,-21.3484 0,-42.69678 36.9765,-21.34839 36.9765,21.34839 z"
         inkscape:transform-center-x="6.1770345e-06"
         inkscape:transform-center-y="-6.6882845e-06" />
      <path
         style="opacity:0.3;fill:url(#linearGradient1337);fill-opacity:1;stroke:url(#linearGradient1339);stroke-width:0.22819237;stroke-opacity:1"
         inkscape:transform-center-y="-4.9103773e-06"
         d="m 397.94879,222.75993 -33.43194,19.30194 -33.43195,-19.30194 v -38.60388 l 33.43195,-19.30194 33.43194,19.30194 z"
         id="path1325"
         inkscape:connector-curvature="0" />
      <path
         style="opacity:0.3;fill:#3771c8;stroke:url(#linearGradient1341);stroke-width:0.2031334;stroke-opacity:1"
         inkscape:transform-center-x="1.393019e-06"
         inkscape:transform-center-y="-4.4186365e-06"
         d="m 394.27746,220.64029 -29.76061,17.1823 -29.76062,-17.1823 v -34.3646 l 29.76062,-17.18229 29.76061,17.18229 z"
         id="path1327"
         inkscape:connector-curvature="0" />
      <path
         style="fill:none;stroke:url(#linearGradient1343);stroke-width:2.89998293;stroke-linecap:butt;stroke-linejoin:miter;stroke-miterlimit:4;stroke-dasharray:none;stroke-opacity:1;marker-start:url(#marker1797-45);marker-end:url(#marker1903-5)"
         d="m 378.41723,189.79897 -10.70862,-6.15876 c -3.8337,-2.16567 -8.53142,-2.16567 -12.34436,0.0357 -3.81292,2.20139 -6.16178,6.26973 -6.16178,10.67252 0,4.40279 2.34887,8.47113 6.14124,10.70839 l 10.68795,6.19456"
         id="path1329"
         inkscape:connector-curvature="0"
         sodipodi:nodetypes="ccsccc" />
      <path
         style="fill:none;stroke:#ffffff;stroke-width:2.89998293;stroke-linecap:butt;stroke-linejoin:miter;stroke-miterlimit:4;stroke-dasharray:none;stroke-opacity:1;marker-start:url(#marker5468-3-4);marker-end:url(#marker5596-6-30)"
         d="m 362.92826,195.70509 10.68795,6.19457 c 3.81293,2.2014 6.16177,6.26975 6.16177,10.67254 0,4.40278 -2.34885,8.47114 -6.16177,10.67253 -3.81294,2.20139 -8.51065,2.20139 -12.32359,-2e-5 l -10.69822,-6.17662"
         id="path1331"
         inkscape:connector-curvature="0"
         sodipodi:nodetypes="ccsccc" />
    </g>
  </g>
</svg>
